<svg width="57" height="35" viewBox="0 0 57 35" fill="none" xmlns="http://www.w3.org/2000/svg">
<path d="M0 35V26.25C0 23.0417 1.11625 20.2951 3.34875 18.0104C5.58125 15.7257 8.265 14.5833 11.4 14.5833H37.05V11.6667C37.05 10.8403 36.7769 10.1476 36.2306 9.58854C35.6844 9.02951 35.0075 8.75 34.2 8.75H22.8C21.9925 8.75 21.3156 9.02951 20.7694 9.58854C20.2231 10.1476 19.95 10.8403 19.95 11.6667H14.25C14.25 9.23611 15.0813 7.17014 16.7437 5.46875C18.4062 3.76736 20.425 2.91667 22.8 2.91667H34.2C36.575 2.91667 38.5938 3.76736 40.2562 5.46875C41.9188 7.17014 42.75 9.23611 42.75 11.6667V23.3333C43.5575 23.3333 44.2344 23.0538 44.7806 22.4948C45.3269 21.9358 45.6 21.2431 45.6 20.4167V8.75C45.6 6.31944 46.4312 4.25347 48.0938 2.55208C49.7562 0.850694 51.775 0 54.15 0H57V5.83333H54.15C53.3425 5.83333 52.6656 6.11285 52.1194 6.67188C51.5731 7.2309 51.3 7.92361 51.3 8.75V20.4167C51.3 22.8472 50.4688 24.9132 48.8062 26.6146C47.1437 28.316 45.125 29.1667 42.75 29.1667V35H0ZM5.7 29.1667H37.05V20.4167H11.4C9.8325 20.4167 8.49063 20.9878 7.37437 22.1302C6.25812 23.2726 5.7 24.6458 5.7 26.25V29.1667Z" fill="white"/>
</svg>
