<svg width="61" height="69" viewBox="0 0 61 69" fill="none" xmlns="http://www.w3.org/2000/svg">
<path d="M30.5 69C26.2728 69 22.3132 68.1977 18.6211 66.593C14.9289 64.9884 11.705 62.8087 8.94934 60.0541C6.19364 57.2994 4.01316 54.0767 2.40789 50.386C0.802632 46.6954 0 42.7372 0 38.5116C0 34.286 0.802632 30.3279 2.40789 26.6372C4.01316 22.9465 6.19364 19.7238 8.94934 16.9692C11.705 14.2145 14.9289 12.0349 18.6211 10.4302C22.3132 8.82558 26.2728 8.02326 30.5 8.02326V0L43.3421 12.8372L30.5 25.6744V17.6512C24.7211 17.6512 19.7982 19.6837 15.7316 23.7488C11.6649 27.814 9.63158 32.7349 9.63158 38.5116C9.63158 42.0419 10.4476 45.318 12.0796 48.3401C13.7116 51.3622 15.8921 53.8093 18.6211 55.6814C19.4772 54.1837 20.748 52.9134 22.4336 51.8703C24.1191 50.8273 26.0588 50.1721 28.2526 49.9047C28.0921 48.7814 27.8781 47.6581 27.6105 46.5349C27.343 45.4116 27.0219 44.3686 26.6474 43.4058C26.0588 43.8872 25.4167 44.2616 24.7211 44.5291C24.0254 44.7965 23.2763 44.9302 22.4737 44.9302C20.7079 44.9302 19.1963 44.3017 17.9388 43.0448C16.6814 41.7878 16.0526 40.2767 16.0526 38.5116V35.3023C16.0526 34.393 15.9055 33.5372 15.6112 32.7349C15.3169 31.9326 14.9289 31.1837 14.4474 30.4884C17.1228 30.4349 19.5039 30.6756 21.5908 31.2105C23.4101 31.6919 25.0689 32.4808 26.5671 33.5773C28.0654 34.6738 28.8412 36.3186 28.8947 38.5116C28.8947 38.993 28.8546 39.4343 28.7743 39.8355C28.6941 40.2366 28.5469 40.6512 28.3329 41.0791C27.6373 40.5442 26.9417 40.0628 26.2461 39.6349C25.5504 39.207 24.8281 38.8326 24.0789 38.5116C24.9886 39.207 26.032 40.2767 27.2092 41.7209C28.3864 43.1651 29.4833 44.8767 30.5 46.8558C31.5702 44.2349 32.9079 41.6541 34.5132 39.1134C36.1184 36.5727 37.9912 34.2326 40.1316 32.093C38.9009 32.9488 37.7237 33.8581 36.6 34.8209C35.4763 35.7837 34.3794 36.8 33.3092 37.8698C32.9347 37.2814 32.6404 36.6262 32.4263 35.9041C32.2123 35.182 32.1053 34.4465 32.1053 33.6977C32.1053 31.4512 32.8811 29.5523 34.4329 28.0012C35.9846 26.45 37.8842 25.6744 40.1316 25.6744H43.3421C44.5728 25.6744 45.5895 25.514 46.3921 25.193C47.1947 24.8721 47.8636 24.4977 48.3987 24.0698C48.9873 23.5884 49.4421 23.0535 49.7632 22.4651C49.9772 26.0488 49.7899 29.2581 49.2013 32.093C48.7197 34.5 47.8101 36.7064 46.4724 38.7122C45.1347 40.718 43.0211 41.7209 40.1316 41.7209C39.3289 41.7209 38.5664 41.614 37.8441 41.4C37.1217 41.186 36.4662 40.8919 35.8776 40.5174C35.5031 41.5337 35.075 42.8843 34.5934 44.5692C34.1118 46.2541 33.7373 48.0593 33.4697 49.9849C35.5031 50.3593 37.2956 51.0547 38.8474 52.0709C40.3991 53.0872 41.5763 54.2907 42.3789 55.6814C45.1079 53.8093 47.2884 51.3756 48.9204 48.3802C50.5524 45.3849 51.3684 42.0953 51.3684 38.5116H61C61 42.7372 60.1974 46.6954 58.5921 50.386C56.9868 54.0767 54.8064 57.2994 52.0507 60.0541C49.295 62.8087 46.0711 64.9884 42.3789 66.593C38.6868 68.1977 34.7272 69 30.5 69Z" fill="white"/>
</svg>
