<svg width="749" height="426" viewBox="0 0 749 426" fill="none" xmlns="http://www.w3.org/2000/svg">
<g id="Group 9">
<path id="Vector" d="M51.0162 382.341C47.4165 382.341 43.8094 382.512 40.2868 382.856L39.7741 382.906C16.4087 385.284 -0.681976 399.079 0.020914 414.996L0.156794 417.874C0.246413 419.693 0.341885 421.649 0.420465 423.819C0.463025 424.89 1.73152 425.711 3.30992 425.711H578.042C618.564 425.428 658.938 425.071 698.038 424.651C705.376 424.669 712.708 424.231 719.992 423.342C730.858 421.861 738.399 418.927 743.05 414.37H743.052C748.835 408.72 749.017 401.604 748.667 393.565C747.955 377.333 747.248 360.28 746.543 343.279C745.921 328.296 745.301 313.353 744.681 299.046C744.297 290.556 743.445 283.062 736.878 277.334C729.759 271.14 716.776 268 698.289 268C698.066 268 697.844 268 697.618 268.001C639.682 268.238 582.276 291.172 554.773 325.068C551.605 328.972 548.654 333.15 545.8 337.192C541.628 343.397 537.023 349.3 532.02 354.856C529.241 357.851 526.194 360.586 522.916 363.025C522.693 363.203 522.438 363.394 522.167 363.574C521.549 364.038 520.902 364.485 520.272 364.884C516.628 367.313 512.736 369.35 508.663 370.96L508.256 371.117C507.95 371.243 507.618 371.369 507.286 371.484C504.938 372.351 502.544 373.087 500.116 373.69C489.632 376.351 477.71 376.988 464.684 375.584C452.653 374.244 440.826 371.469 429.455 367.319C417.392 362.931 406.102 357.459 395.183 352.168C390.387 349.843 385.426 347.439 380.472 345.162C379.541 344.733 378.625 344.314 377.695 343.896C371.644 341.181 366.158 338.939 360.924 337.041C348.067 332.345 334.614 329.476 320.96 328.519C306.55 327.611 293.853 329.324 283.228 333.599C280.276 334.784 277.422 336.199 274.693 337.832C262.108 345.355 254.35 356.459 246.848 367.197C237.516 380.554 227.865 394.366 208.81 401.526C186.822 409.796 154.726 406.36 132.019 400.386C124.88 398.507 117.749 396.346 110.853 394.255C108.068 393.41 105.281 392.571 102.492 391.738C97.011 390.109 92.5256 388.861 88.3758 387.808L87.0632 387.472C86.3332 387.289 85.6023 387.106 84.8583 386.933C79.9292 385.741 75.3394 384.804 70.8194 384.066L69.75 383.887C67.606 383.562 65.6016 383.291 63.6347 383.063L62.8496 382.974C58.9194 382.549 54.9692 382.337 51.0162 382.341Z" fill="#AAD576"/>
<path id="TreeSecond" d="M239.853 221.706C301.075 221.706 350.706 172.075 350.706 110.853C350.706 49.6305 301.075 0 239.853 0C178.631 0 129 49.6305 129 110.853C129 172.075 178.631 221.706 239.853 221.706Z" fill="#AAD576"/>
<path id="Vector_2" d="M240.157 110.852H240.462L245.944 425.139H234.371L240.157 110.852Z" fill="#73A942"/>
<path id="TreeThree" d="M477.853 276.761C522.507 276.761 558.706 240.562 558.706 195.908C558.706 151.254 522.507 115.055 477.853 115.055C433.199 115.055 397 151.254 397 195.908C397 240.562 433.199 276.761 477.853 276.761Z" fill="#AAD576"/>
<path id="Vector_3" d="M478.075 195.907H478.298L482.296 425.139H473.855L478.075 195.907Z" fill="#73A942"/>
</g>
</svg>
